<svg xmlns="http://www.w3.org/2000/svg" xmlns:xlink="http://www.w3.org/1999/xlink" width="265" height="265" viewBox="0 0 265 265">
  <defs>
    <style>
      .cls-1 {
        fill: none;
      }

      .cls-2 {
        fill: #fff;
      }

      .cls-3 {
        fill: #191212;
        font-size: 20px;
        font-family: AppleSDGothicNeoM00;
        letter-spacing: -0.018em;
      }

      .cls-4 {
        clip-path: url(#clip-path);
      }

      .cls-5 {
        clip-path: url(#clip-path-2);
      }

      .cls-6 {
        fill: #f6323e;
      }
    </style>
    <clipPath id="clip-path">
      <rect id="사각형_3064" data-name="사각형 3064" class="cls-1" width="86.027" height="76.5"/>
    </clipPath>
    <clipPath id="clip-path-2">
      <rect id="사각형_3074" data-name="사각형 3074" class="cls-1" width="23.718" height="16.654" transform="translate(0 0)"/>
    </clipPath>
  </defs>
  <g id="그룹_99" data-name="그룹 99" transform="translate(-400 -1305)">
    <rect id="사각형_3032" data-name="사각형 3032" class="cls-2" width="265" height="265" transform="translate(400 1305)"/>
    <text id="자유로운_복장" data-name="자유로운 복장" class="cls-3" transform="translate(533 1494)"><tspan x="-53.45" y="0">자유로운 복장</tspan></text>
    <g id="그룹_81" data-name="그룹 81" transform="translate(489 1375)">
      <g id="그룹_80" data-name="그룹 80" class="cls-4">
        <path id="패스_179" data-name="패스 179" d="M85.361,13.9,68.491,4.977a1.222,1.222,0,0,0-.166-.061c-.024-.009-.043-.026-.068-.033L52.425.229A1.217,1.217,0,0,0,51.744,0H35.031a1.239,1.239,0,0,0-.352.051L18.24,4.883c-.025.008-.045.025-.07.034a1.239,1.239,0,0,0-.2.08L.629,14.921a1.251,1.251,0,0,0-.573,1.457l5,16.067a1.249,1.249,0,0,0,1.193.878,1.271,1.271,0,0,0,.137-.007,32.97,32.97,0,0,0,10.957-3.677V75.25a1.249,1.249,0,0,0,1.25,1.25H67.9a1.25,1.25,0,0,0,1.25-1.25V29.588a37.21,37.21,0,0,0,10.923,3.724,1.258,1.258,0,0,0,1.38-.918l4.527-17.065a1.25,1.25,0,0,0-.624-1.425M50.494,2.5V3.926c0,3.88-3.661,7.833-7.255,7.833-3.511,0-6.958-3.88-6.958-7.834V2.5ZM7.121,30.667,2.741,16.592l14.6-8.354v18.53a32.009,32.009,0,0,1-10.222,3.9M66.655,74H19.843V7.017l13.937-4.1v1c0,5.312,4.6,10.334,9.458,10.334,4.923,0,9.755-5.118,9.755-10.333V3L66.655,7.018ZM79.339,30.632a36.6,36.6,0,0,1-10.182-3.884V8.158l14.158,7.491Z"/>
      </g>
      <g id="그룹_98" data-name="그룹 98" transform="translate(31 30)">
        <g id="그룹_98-2" data-name="그룹 98" class="cls-5" transform="translate(0 -6)">
          <path id="패스_213" data-name="패스 213" class="cls-6" d="M19.033,3.684a2.674,2.674,0,0,0,.043-.347C19.076,1.494,17.248,0,14.994,0A4.376,4.376,0,0,0,11.6,1.482,2.767,2.767,0,0,0,9.754.708c-1.56,0-2.865,1.474-3.314,3.5A5.5,5.5,0,0,0,4.8,3.944C2.151,3.944,0,5.778,0,8.04s2.151,4.1,4.8,4.1a5.59,5.59,0,0,0,.805-.069,5.964,5.964,0,0,0,4.258,4.422,6.127,6.127,0,0,0,6.671-3.017,7.481,7.481,0,0,0,1.058.08c3.381,0,6.122-2.241,6.122-5.006,0-2.359-2-4.332-4.685-4.861"/>
        </g>
        <circle id="타원_1" data-name="타원 1" class="cls-2" cx="1" cy="1" r="1" transform="translate(6)"/>
        <circle id="타원_2" data-name="타원 2" class="cls-2" cx="1" cy="1" r="1" transform="translate(11)"/>
      </g>
    </g>
  </g>
</svg>
