<svg xmlns="http://www.w3.org/2000/svg" xmlns:xlink="http://www.w3.org/1999/xlink" width="265" height="265" viewBox="0 0 265 265">
  <defs>
    <style>
      .cls-1 {
        fill: none;
      }

      .cls-2 {
        fill: #fff;
      }

      .cls-3, .cls-6 {
        fill: #191212;
      }

      .cls-3 {
        font-size: 20px;
        font-family: AppleSDGothicNeoM00;
        letter-spacing: -0.018em;
      }

      .cls-4 {
        clip-path: url(#clip-path);
      }

      .cls-5 {
        fill: #f6323e;
      }
    </style>
    <clipPath id="clip-path">
      <rect id="사각형_3065" data-name="사각형 3065" class="cls-1" width="86.5" height="75.699" transform="translate(0 0)"/>
    </clipPath>
  </defs>
  <g id="그룹_100" data-name="그룹 100" transform="translate(-685 -1305)">
    <rect id="사각형_3033" data-name="사각형 3033" class="cls-2" width="265" height="265" transform="translate(685 1305)"/>
    <text id="커피_및_간식" data-name="커피 및 간식" class="cls-3" transform="translate(818 1494)"><tspan x="-47.43" y="0">커피 및 간식</tspan></text>
    <g id="그룹_83" data-name="그룹 83" transform="translate(774 1376)">
      <g id="그룹_82" data-name="그룹 82" class="cls-4">
        <path id="패스_181" data-name="패스 181" class="cls-5" d="M49.639,13.721s-26.2,2.048-25.785-2.576c.573-6.356,12.1-4.131,16.685-9.9,12.354,5.208,17.03,5.416,17.313,8.471a3.223,3.223,0,0,1-2.481,3.613Z"/>
        <path id="패스_182" data-name="패스 182" class="cls-6" d="M85.461,61.191A1.264,1.264,0,0,0,84.018,62.2c-.023.118-2.712,11.749-39.947,10.964-28.114-.6-37.473-6.557-40.4-9.5H68.25a1.25,1.25,0,0,0,0-2.5h-67A1.25,1.25,0,0,0,.059,62.79c.156.49,4.286,12.021,43.959,12.87,1.236.027,2.432.039,3.6.039C84.04,75.7,86.4,63.15,86.485,62.6a1.239,1.239,0,0,0-1.024-1.409"/>
        <path id="패스_183" data-name="패스 183" class="cls-6" d="M19.614,46.084l7.313,13.267A1.251,1.251,0,0,0,28.022,60H53.056a1.251,1.251,0,0,0,1.09-.639l7.218-12.887a1.25,1.25,0,0,0,.154-.483L64.3,18.83a1.25,1.25,0,0,0-1.243-1.377H18.022a1.251,1.251,0,0,0-1.244,1.375L19.465,45.6a1.264,1.264,0,0,0,.149.479M61.671,19.953,59.057,45.476,52.323,57.5H28.76L21.927,45.1,19.4,19.953Z"/>
        <path id="패스_184" data-name="패스 184" class="cls-6" d="M67.562,28.318a1.25,1.25,0,0,0,1.25-1.25V25.5a6.888,6.888,0,1,1,13.774.145L82.525,28.5A15.673,15.673,0,0,1,64.263,43.632,1.25,1.25,0,1,0,63.85,46.1a18.172,18.172,0,0,0,21.174-17.54l.061-2.862a9.388,9.388,0,1,0-18.773-.2v1.57a1.25,1.25,0,0,0,1.25,1.25"/>
        <path id="패스_185" data-name="패스 185" class="cls-6" d="M37.981,15.444c5.145,0,10.032-.342,11.755-.477a1.25,1.25,0,0,0-.194-2.492c-12.186.951-23.613.357-24.443-1.218.219-2.432,2.707-3.217,6.748-4.3,3.131-.837,6.643-1.775,9.033-4.211,3.764,1.562,6.743,2.639,9.168,3.515,4.788,1.73,6.45,2.389,6.559,3.573a1.933,1.933,0,0,1-1.484,2.273,1.25,1.25,0,0,0,.495,2.45A4.43,4.43,0,0,0,59.1,9.606c-.261-2.825-2.748-3.724-8.2-5.693C48.324,2.983,45.122,1.826,41.024.1a1.248,1.248,0,0,0-1.463.373C37.7,2.807,34.4,3.69,31.2,4.545,27.168,5.623,23,6.737,22.608,11.033a2.449,2.449,0,0,0,.752,1.989c1.908,1.931,8.45,2.422,14.621,2.422"/>
      </g>
    </g>
  </g>
</svg>
