<svg xmlns="http://www.w3.org/2000/svg" xmlns:xlink="http://www.w3.org/1999/xlink" width="265" height="265" viewBox="0 0 265 265">
  <defs>
    <style>
      .cls-1 {
        fill: none;
      }

      .cls-2 {
        fill: #fff;
      }

      .cls-3, .cls-6 {
        fill: #191212;
      }

      .cls-3 {
        font-size: 20px;
        font-family: AppleSDGothicNeoM00;
        letter-spacing: -0.018em;
      }

      .cls-4 {
        fill: #f6323e;
      }

      .cls-5 {
        clip-path: url(#clip-path);
      }
    </style>
    <clipPath id="clip-path">
      <rect id="사각형_3067" data-name="사각형 3067" class="cls-1" width="86.5" height="73.893" transform="translate(0 0)"/>
    </clipPath>
  </defs>
  <g id="그룹_101" data-name="그룹 101" transform="translate(-970 -1305)">
    <rect id="사각형_3035" data-name="사각형 3035" class="cls-2" width="265" height="265" transform="translate(970 1305)"/>
    <text id="자유로운_연차" data-name="자유로운 연차" class="cls-3" transform="translate(1103 1494)"><tspan x="-53.45" y="0">자유로운 연차</tspan></text>
    <g id="그룹_86" data-name="그룹 86" transform="translate(1059 1378)">
      <path id="패스_186" data-name="패스 186" class="cls-4" d="M69.686,53.823,85.25,46.136V35.1L65.3,44.951Z"/>
      <rect id="사각형_3066" data-name="사각형 3066" class="cls-4" width="9.896" height="20.391" transform="matrix(0.5, -0.866, 0.866, 0.5, 10.415, 55.127)"/>
      <g id="그룹_85" data-name="그룹 85">
        <g id="그룹_84" data-name="그룹 84" class="cls-5">
          <path id="패스_187" data-name="패스 187" class="cls-6" d="M79.36,9.2H55.4V7.267A7.275,7.275,0,0,0,48.138,0H38.362a7.275,7.275,0,0,0-7.267,7.267V9.2H7.14A7.148,7.148,0,0,0,0,16.342V66.753a7.148,7.148,0,0,0,7.14,7.14H79.36a7.148,7.148,0,0,0,7.14-7.14V16.342A7.148,7.148,0,0,0,79.36,9.2M84,45.359l-13.747,6.79-3.275-6.631L84,37.111ZM33.6,7.267A4.772,4.772,0,0,1,38.362,2.5h9.776A4.772,4.772,0,0,1,52.9,7.267V9.2H33.6ZM79.36,71.393H70.63V58.284a1.25,1.25,0,1,0-2.5,0V71.393H18.371v-6.83a1.25,1.25,0,1,0-2.5,0v6.83H7.14a4.646,4.646,0,0,1-4.64-4.64V16.342A4.646,4.646,0,0,1,7.14,11.7h8.741V36.824a1.24,1.24,0,0,0,2.479,0V11.7H68.14V36.824a1.24,1.24,0,0,0,2.479,0V11.7H79.36A4.645,4.645,0,0,1,84,16.342V34.323L64.75,43.831a1.25,1.25,0,0,0-.567,1.674l4.382,8.872a1.25,1.25,0,0,0,1.674.567L84,48.147V66.753a4.645,4.645,0,0,1-4.64,4.64"/>
          <path id="패스_188" data-name="패스 188" class="cls-6" d="M33.706,27.509a7.366,7.366,0,0,0-7.371,6.6L24.653,45.523a1.251,1.251,0,0,0,1.237,1.432h4.222a2.07,2.07,0,0,0,1.427-.562,2.078,2.078,0,0,0,.071-2.85c-.044-.048-.09-.093-.137-.136L31.723,42a7.506,7.506,0,0,0,1.983.266,7.38,7.38,0,1,0,0-14.759m0,12.259a4.881,4.881,0,0,1-2.351-.588,1.251,1.251,0,0,0-1.827.88l-.692,3.9a1.255,1.255,0,0,0,.014.5H27.338l1.478-10.037a4.912,4.912,0,1,1,4.89,5.35"/>
          <path id="패스_189" data-name="패스 189" class="cls-6" d="M33.647,55.67,15.989,45.475a1.251,1.251,0,0,0-1.708.457L9.333,54.5a1.251,1.251,0,0,0,.458,1.708L27.45,66.4a1.244,1.244,0,0,0,.625.168,1.268,1.268,0,0,0,.323-.043,1.249,1.249,0,0,0,.759-.582l4.948-8.57a1.251,1.251,0,0,0-.458-1.708m-6.03,7.945L12.123,54.67l3.7-6.4L31.315,57.21Z"/>
        </g>
      </g>
    </g>
  </g>
</svg>
