<svg xmlns="http://www.w3.org/2000/svg" xmlns:xlink="http://www.w3.org/1999/xlink" width="265" height="265" viewBox="0 0 265 265">
  <defs>
    <style>
      .cls-1 {
        fill: none;
      }

      .cls-2 {
        fill: #fff;
      }

      .cls-3 {
        fill: #191212;
        font-size: 20px;
        font-family: AppleSDGothicNeoM00;
        letter-spacing: -0.018em;
      }

      .cls-4 {
        clip-path: url(#clip-path);
      }

      .cls-5 {
        fill: #f6323e;
      }
    </style>
    <clipPath id="clip-path">
      <rect id="사각형_3070" data-name="사각형 3070" class="cls-1" width="73.309" height="76.5"/>
    </clipPath>
  </defs>
  <g id="그룹_103" data-name="그룹 103" transform="translate(-400 -1590)">
    <rect id="사각형_3032" data-name="사각형 3032" class="cls-2" width="265" height="265" transform="translate(400 1590)"/>
    <text id="아침_제공" data-name="아침 제공" class="cls-3" transform="translate(533 1782)"><tspan x="-36.51" y="0">아침 제공</tspan></text>
    <g id="그룹_91" data-name="그룹 91" transform="translate(496 1663)">
      <g id="그룹_90" data-name="그룹 90" class="cls-4">
        <path id="패스_191" data-name="패스 191" class="cls-5" d="M5.969,70.328a4.922,4.922,0,0,0,9.843,0V53.01H5.969Z"/>
        <path id="패스_192" data-name="패스 192" class="cls-5" d="M31.733,70.328a4.922,4.922,0,0,0,9.843,0V53.01H31.733Z"/>
        <path id="패스_193" data-name="패스 193" class="cls-5" d="M62.216,53.01V70.328a4.921,4.921,0,1,0,9.843,0V53.01Z"/>
        <path id="패스_194" data-name="패스 194" d="M10.89,76.5a6.178,6.178,0,0,1-6.171-6.171V29.424A10.945,10.945,0,0,1,0,20.463V10.89a10.891,10.891,0,0,1,21.781,0v9.573a10.946,10.946,0,0,1-4.72,8.961V70.329A6.178,6.178,0,0,1,10.89,76.5m0-74A8.4,8.4,0,0,0,2.5,10.89v9.573a8.324,8.324,0,0,0,4.108,7.2,1.251,1.251,0,0,1,.611,1.074V70.329a3.671,3.671,0,0,0,7.342,0V28.742a1.251,1.251,0,0,1,.611-1.074,8.325,8.325,0,0,0,4.109-7.2V10.89A8.4,8.4,0,0,0,10.89,2.5"/>
        <path id="패스_195" data-name="패스 195" d="M67.137,76.5a6.178,6.178,0,0,1-6.171-6.171V35.759l-2.22-1.152a13.33,13.33,0,0,1-7.219-11.875V10.89a10.89,10.89,0,0,1,21.781,0V70.329A6.178,6.178,0,0,1,67.137,76.5m-4.719-74a8.4,8.4,0,0,0-8.391,8.39V22.732a10.839,10.839,0,0,0,5.87,9.656l2.9,1.5A1.248,1.248,0,0,1,63.466,35v35.33a3.671,3.671,0,0,0,7.342,0V10.89a8.4,8.4,0,0,0-8.39-8.39"/>
        <path id="패스_196" data-name="패스 196" d="M36.654,76.5a6.178,6.178,0,0,1-6.171-6.171V29.424a10.946,10.946,0,0,1-4.72-8.961V1.25a1.25,1.25,0,0,1,2.5,0V20.463a8.325,8.325,0,0,0,4.109,7.2,1.251,1.251,0,0,1,.611,1.074V70.329a3.671,3.671,0,0,0,7.342,0V28.742a1.251,1.251,0,0,1,.611-1.074,8.325,8.325,0,0,0,4.109-7.2V1.25a1.25,1.25,0,0,1,2.5,0V20.463a10.946,10.946,0,0,1-4.72,8.961V70.329A6.178,6.178,0,0,1,36.654,76.5"/>
        <path id="패스_197" data-name="패스 197" d="M33.576,11.7a1.25,1.25,0,0,1-1.25-1.25V1.25a1.25,1.25,0,0,1,2.5,0v9.2a1.25,1.25,0,0,1-1.25,1.25"/>
        <path id="패스_198" data-name="패스 198" d="M39.913,11.7a1.25,1.25,0,0,1-1.25-1.25V1.25a1.25,1.25,0,0,1,2.5,0v9.2a1.25,1.25,0,0,1-1.25,1.25"/>
      </g>
    </g>
  </g>
</svg>
