<svg xmlns="http://www.w3.org/2000/svg" xmlns:xlink="http://www.w3.org/1999/xlink" width="265" height="265" viewBox="0 0 265 265">
  <defs>
    <style>
      .cls-1 {
        fill: none;
      }

      .cls-2 {
        fill: #fff;
      }

      .cls-3, .cls-5 {
        fill: #191212;
      }

      .cls-3 {
        font-size: 20px;
        font-family: AppleSDGothicNeoM00;
        letter-spacing: -0.018em;
      }

      .cls-4 {
        clip-path: url(#clip-path);
      }

      .cls-6 {
        fill: #f6323e;
      }
    </style>
    <clipPath id="clip-path">
      <rect id="사각형_3071" data-name="사각형 3071" class="cls-1" width="79.268" height="71.502" transform="translate(0 0)"/>
    </clipPath>
  </defs>
  <g id="그룹_104" data-name="그룹 104" transform="translate(-685 -1590)">
    <rect id="사각형_3033" data-name="사각형 3033" class="cls-2" width="265" height="265" transform="translate(685 1590)"/>
    <text id="휴식공간" class="cls-3" transform="translate(818 1782)"><tspan x="-34.06" y="0">휴식공간</tspan></text>
    <g id="그룹_93" data-name="그룹 93" transform="translate(778 1668)">
      <g id="그룹_92" data-name="그룹 92" class="cls-4">
        <path id="패스_199" data-name="패스 199" class="cls-5" d="M77.239,4.61,75.6,3.628h0l-.024-.015,0,0-1.188-.7A20.577,20.577,0,0,0,55.915,1.586,20.188,20.188,0,0,0,43.949,15.258c-.053.2-.1.394-.143.58-.173.747-.33,1.479-.48,2.206-.043.211-.085.422-.126.631-.052.261-.107.522-.156.782l-.2-.034A29.727,29.727,0,0,0,17.811,26.75a30.934,30.934,0,0,0-4.6,5.195,30.187,30.187,0,0,0-4.327,9.089A23.1,23.1,0,0,0,.162,62.025l.425,3.631a4.57,4.57,0,0,0,4.014,4,42.1,42.1,0,0,0,5.078.311,42.655,42.655,0,0,0,4.993-.294l.38-.045h3.236A2.048,2.048,0,0,0,20.322,71.5h3.907a2.047,2.047,0,0,0,2.034-1.871H59.35A2.048,2.048,0,0,0,61.384,71.5h3.907a2.048,2.048,0,0,0,2.034-1.871h5.053V67.76h1v-8.7l-1.027-.186a29.5,29.5,0,0,1-13.314-6.131c6.88-6.307,9.8-15.1,13.169-25.282l.8-2.41a2.676,2.676,0,0,0-.619-2.719,2.372,2.372,0,0,0-.179-.169c.119-.145.226-.3.343-.445.212-.265.417-.535.622-.805q.549-.724,1.062-1.474c.193-.281.384-.562.569-.848.346-.537.673-1.086.991-1.641.147-.256.3-.507.443-.767.443-.818.864-1.649,1.247-2.5a37.465,37.465,0,0,0,1.6-4.221A4.186,4.186,0,0,0,77.239,4.61M73.96,15.144c-.148.268-.318.523-.472.787-.311.533-.617,1.067-.956,1.582-.2.31-.432.6-.646.908-.316.449-.626.9-.963,1.337-.248.319-.52.62-.779.93-.3.358-.594.72-.908,1.067-.254.073-.5.147-.769.22h0l.28,1.013c0,.024,0,.048.008.072L68.356,22c-.349.1-.705.192-1.071.285l-.05.012-.044.011A112.057,112.057,0,0,1,76.233,6.994c.027.026.061.046.087.075a1.567,1.567,0,0,1,.119.15,1.592,1.592,0,0,1,.164.286,1.554,1.554,0,0,1,.072.174,1.757,1.757,0,0,1,.068.348c.005.054.018.107.018.163a1.747,1.747,0,0,1-.073.532A34.841,34.841,0,0,1,75.2,12.659q-.57,1.27-1.239,2.485M12.389,38.6c.106-.252.217-.5.331-.752.1-.214.194-.427.3-.639.12-.248.247-.493.375-.738.108-.206.215-.413.329-.617.135-.244.278-.485.421-.725.119-.2.235-.4.358-.594.152-.241.312-.476.471-.713.127-.188.251-.379.383-.565.169-.238.348-.471.524-.7.135-.177.265-.357.4-.531.191-.24.392-.473.592-.708.136-.16.267-.323.406-.48.228-.256.467-.5.7-.753.123-.128.239-.26.364-.386q.553-.557,1.139-1.087A27.282,27.282,0,0,1,37.827,21.5a27.65,27.65,0,0,1,4.6.388c.254.043.5.088.728.134l.467.094.179.037h0c.94.19,1.81.378,2.645.564.238.053.487.106.717.159.295.067.569.133.852.2.212.05.436.1.641.15,2.39.576,4.295,1.107,5.842,1.538,1.145.319,2.1.584,2.933.782.187.044.364.081.537.117l.14.031c.141.028.274.05.493.088l.135.023c.146.022.282.036.44.053l.155.018q.3.026.579.026h.043c-2.2,4.336-7.8,14.359-14.064,18.007-6.5,3.784-27.457,5.518-35.609,6.06-.025-.594-.034-1.151-.028-1.656,0-.026,0-.051,0-.077.009-.242.026-.482.042-.723q.021-.323.049-.644l.088-.675c.127-.981.249-1.908.449-2.823.008-.041.018-.081.027-.121.089-.4.185-.789.291-1.179l.045-.168c.04-.143.079-.287.121-.43.077-.261.158-.52.242-.779q.111-.338.229-.672c.091-.257.188-.512.287-.766.085-.22.172-.439.263-.657M64.1,22.983h0l-.037.081h-.007A114.16,114.16,0,0,1,74.092,5.641l.027.016A116.516,116.516,0,0,0,64.1,22.983M10.441,52.463c3.263-.215,7.708-.56,12.439-1.073-4.993.546-9.542.89-12.438,1.08v-.007m35.137-5.615-.007,0,.007,0M23.9,51.277l-.312.035.312-.035m22.515-4.815-.094.044.094-.044m2.834-1.832c-.183.143-.366.285-.551.42.185-.135.368-.277.551-.42m-.922.68c-.129.089-.258.182-.388.268.13-.086.259-.178.388-.268M62.845,25.7h0c-1.533,3.214-6.441,12.8-12.731,18.214C56.349,38.537,61.285,28.947,62.845,25.7M50.112,43.922c-.227.195-.456.386-.687.57.231-.185.46-.374.687-.57m13.04-18.865.023-.051.074-.158c-.064.14-.156.34-.278.6ZM46.368,15.888A17.706,17.706,0,0,1,56.868,3.9c.573-.237,1.155-.436,1.74-.613l.187-.059c.551-.159,1.107-.287,1.664-.393.1-.019.2-.04.3-.057.535-.093,1.073-.159,1.61-.2.123-.01.245-.019.368-.027q.781-.048,1.562-.03c.14,0,.281.012.421.019.508.024,1.014.066,1.518.133.148.02.294.048.441.072q.664.1,1.322.26c.185.044.368.091.551.141q.632.171,1.252.389c.147.052.3.1.442.154.487.185.966.395,1.441.623l.217.1A117.285,117.285,0,0,0,61.177,23.351l-.1.011a9.561,9.561,0,0,1-1.528.022l-.131-.016c-.1-.01-.2-.021-.363-.047l-.12-.021c-.108-.018-.217-.036-.333-.059l-.244,1.226.128-1.252c-.153-.032-.31-.065-.5-.11-.781-.184-1.7-.44-2.8-.747-.616-.171-1.292-.359-2.027-.559l-.209-.056c-.3-.08-.6-.161-.914-.244l-.345-.09-.875-.225-.452-.113c-.284-.071-.574-.143-.874-.216l-.534-.128q-.444-.106-.911-.214l-.594-.136c-.313-.071-.636-.142-.964-.214l-.66-.143-.322-.07.075-.4c.2-1.042.416-2.081.663-3.15q.057-.246.127-.514M4.9,67.178A2.08,2.08,0,0,1,3.07,65.366l-.424-3.631A20.593,20.593,0,0,1,8.021,45.208c-.064.463-.119.928-.161,1.4l0,.028c-.047.351-.074.764-.089,1.208l-.006.126c0,.053,0,.108,0,.163A30.763,30.763,0,0,0,7.8,51.382l0,.022.08,1.22H7.9v0H7.895l.037.315v0l.2,1.727c.174,1.691.345,2.97.361,3.089a5.523,5.523,0,0,0,.191.934c.03.1.078.2.114.3a5.869,5.869,0,0,0,.222.571c.055.113.127.215.19.323.09.159.175.32.28.469.076.107.167.2.25.3.111.135.216.275.339.4.095.095.2.176.3.265.129.114.254.231.393.333.111.081.233.146.35.219.145.09.286.184.439.261.126.064.261.111.392.165.158.065.313.135.478.186.139.044.284.07.428.1s.27.076.411.1v4.618a39.8,39.8,0,0,1-8.371-.13m65.969-6.044V65.26h-55.1V62.942l.2.013.528.039c.152.01.3.024.456.033,1.147.066,2.192.1,3.191.1,1.167,0,2.305-.015,3.422-.041.433-.01.848-.027,1.272-.041.653-.021,1.306-.042,1.942-.072.549-.026,1.081-.059,1.615-.091.458-.029.916-.056,1.365-.09.644-.046,1.274-.1,1.9-.157.279-.025.557-.052.832-.079q1.131-.114,2.214-.248l.219-.028c10.138-1.291,17.1-4.022,22.147-7.888a32.02,32.02,0,0,0,13.8,6.744M69.827,26.679C66.487,36.774,63.7,45.173,57.11,51.093l-.008-.007-.829.684c-5.937,4.9-14.614,7.677-26.929,8.551l-.3.019c-.828.056-1.669.1-2.53.144-.407.018-.831.03-1.246.044-.6.022-1.2.046-1.814.06-1.074.023-2.171.037-3.3.037-1,0-2.007-.035-3.015-.093l-.057,0-.541-.042c-.924-.064-1.85-.141-2.771-.253a3.233,3.233,0,0,1-.535-.111,3.161,3.161,0,0,1-2.256-2.671l-.291-2.493c9.831-.642,30.386-2.462,37.722-6.732,9.6-5.59,16.916-21.887,17.229-22.593.011-.026.079-.182.2-.444l.234-.051.544-.117c.339-.076.67-.158,1-.24l.288-.071h0q.57-.146,1.115-.3l.112-.029c.433-.12.855-.242,1.258-.362a.178.178,0,0,1,.195.051.169.169,0,0,1,.043.187Z"/>
        <path id="패스_200" data-name="패스 200" class="cls-6" d="M75.928,5.283l-2.1-1.258c-.025-.015-.051-.027-.076-.042-6.848,9.32-16.622,35.343-27.229,41-6.987,4.067-29.031,5.79-37.476,6.312.033.5.071,1,.13,1.5l.116.994c8.686-.529,30.987-2.28,38.488-6.647C58.9,41.281,68.115,14.688,75.928,5.283"/>
      </g>
    </g>
  </g>
</svg>
