<svg xmlns="http://www.w3.org/2000/svg" xmlns:xlink="http://www.w3.org/1999/xlink" width="265" height="265" viewBox="0 0 265 265">
  <defs>
    <style>
      .cls-1 {
        fill: none;
      }

      .cls-2 {
        fill: #fff;
      }

      .cls-3 {
        fill: #191212;
        font-size: 20px;
        font-family: AppleSDGothicNeoM00;
        letter-spacing: -0.018em;
      }

      .cls-4 {
        clip-path: url(#clip-path);
      }

      .cls-5 {
        fill: #f6323e;
      }
    </style>
    <clipPath id="clip-path">
      <rect id="사각형_3072" data-name="사각형 3072" class="cls-1" width="61.405" height="81.501" transform="translate(0 0)"/>
    </clipPath>
  </defs>
  <g id="그룹_105" data-name="그룹 105" transform="translate(-970 -1590)">
    <rect id="사각형_3035" data-name="사각형 3035" class="cls-2" width="265" height="265" transform="translate(970 1590)"/>
    <text id="건강_드링크" data-name="건강 드링크" class="cls-3" transform="translate(1103 1782)"><tspan x="-44.98" y="0">건강 드링크</tspan></text>
    <g id="그룹_95" data-name="그룹 95" transform="translate(1072 1658)">
      <g id="그룹_94" data-name="그룹 94" class="cls-4">
        <path id="패스_201" data-name="패스 201" class="cls-5" d="M37.495,39.747a18.152,18.152,0,0,1-11.158-3.812l.315.239a18.194,18.194,0,0,0-23.228.736L9.249,80.251h32.4l5.847-43.5a18.129,18.129,0,0,1-10.006,3M18.4,54.85c-2.58,1.007-4.518.787-6.089-1.431L10.3,50.366A5.329,5.329,0,0,1,9.339,47.6a5.671,5.671,0,0,1,1.423-3.925s2.2-3.036,3.92-3.709,4.9-1.344,7.122,0a6.706,6.706,0,0,1,2.012,1.871l1.168,1.649c1.819,2.569,1.049,5.167-1.358,7.945L20.9,53.788ZM38.633,67.577l-.913,3.539c-.767,2.607-2.53,3.442-5.3,3.325l-2.712-.194L26.37,72.9c-3.176-1.849-4.746-4.058-3.857-7.077l.571-1.939a6.705,6.705,0,0,1,1.3-2.421c1.67-1.993,4.893-2.386,6.738-2.306s4.91,2.24,4.91,2.24a5.671,5.671,0,0,1,2.616,3.253,5.318,5.318,0,0,1-.014,2.925"/>
        <path id="패스_202" data-name="패스 202" d="M33.25,49.6c1.7,0,3.137-1.74,3.137-3.8,0-.94,0-3.8-3.137-3.8-2.173,0-3.522,1.456-3.522,3.8a3.766,3.766,0,0,0,3.522,3.8m0-5.1c.5,0,.637,0,.637,1.3a1.427,1.427,0,0,1-.637,1.3,1.322,1.322,0,0,1-1.022-1.3c0-1.3.566-1.3,1.022-1.3"/>
        <path id="패스_203" data-name="패스 203" d="M38.581,50.2a3.8,3.8,0,1,0-.69,7.543c1.635,0,2.871-1.217,3.222-3.247.394-2.275-.6-3.961-2.532-4.3m.069,3.869c-.222,1.28-.742,1.191-.938,1.158-.917-.159-.779-1.234-.742-1.448s.237-1.131,1-1.131a1.063,1.063,0,0,1,.18.016c.2.034.717.124.5,1.405"/>
        <path id="패스_204" data-name="패스 204" d="M14.362,62.263c-1.846,0-3.238,1.685-3.238,3.918a3.131,3.131,0,0,0,3.238,3.436A3.132,3.132,0,0,0,17.6,66.181c0-2.233-1.393-3.918-3.239-3.918m0,4.854c-.418,0-.738-.069-.738-.936,0-.848.382-1.418.738-1.418s.739.57.739,1.418c0,.867-.321.936-.739.936"/>
        <path id="패스_205" data-name="패스 205" d="M21.363,54.657a.93.93,0,0,0,.192-.113L24.28,52.19a.982.982,0,0,0,.1-.1c2.931-3.383,3.4-6.386,1.418-9.178l-1.167-1.648a7.7,7.7,0,0,0-2.312-2.149c-3.068-1.853-7.2-.387-8-.075-1.937.757-4.123,3.718-4.36,4.045a6.682,6.682,0,0,0-1.617,4.582,6.33,6.33,0,0,0,1.123,3.251L11.493,54a5.082,5.082,0,0,0,4.3,2.433,8.362,8.362,0,0,0,2.995-.659l2.5-1.062c.028-.012.046-.037.072-.051m2.8-10.591h0c.941,1.329,1.645,3.286-1.252,6.659l-1.767,1.526-.05-.083L17.985,46.94l1.755-2.421,2.291-3.16A5.733,5.733,0,0,1,23,42.417ZM15.047,40.9a10.255,10.255,0,0,1,3.6-.711,6.117,6.117,0,0,1,1.62.2l-4.018,5.542-5.834.56a5.793,5.793,0,0,1,1.161-2.229c.786-1.083,2.425-2.954,3.476-3.365m2.988,13.018c-2.337.912-3.715.61-4.891-1.05l-2.028-3.08a4.234,4.234,0,0,1-.616-1.293l5.754-.553,3.2,5.373Z"/>
        <path id="패스_206" data-name="패스 206" d="M36.607,60.582c-.338-.238-3.365-2.331-5.442-2.421-.86-.038-5.247-.083-7.548,2.662h0A7.692,7.692,0,0,0,22.125,63.6l-.571,1.938c-.967,3.282.444,5.973,4.314,8.225A1.026,1.026,0,0,0,26,73.83l3.34,1.345a.944.944,0,0,0,.189.037,1.069,1.069,0,0,0,.114.033l2.74.2c.183.008.372.012.566.012,2.1,0,4.706-.565,5.743-4.087l.9-3.506a6.358,6.358,0,0,0,.019-3.472,6.676,6.676,0,0,0-3.005-3.806m-5.529-.423c1.126.048,3.283,1.288,4.386,2.064a5.753,5.753,0,0,1,1.812,1.728l-2.543.606-3.159.752L27.51,62.446l-1.532-1.08a8.96,8.96,0,0,1,5.1-1.207m-7.6,5.949h0l.571-1.938a5.689,5.689,0,0,1,.574-1.315l5.635,3.971-1.275,6.049L26.812,72c-3.833-2.253-3.8-4.333-3.339-5.894m14.192,1.22-.9,3.506c-.583,1.983-1.777,2.717-4.267,2.61l-1.568-.112,1.289-6.119,5.622-1.34a4.373,4.373,0,0,1-.172,1.455"/>
        <path id="패스_207" data-name="패스 207" d="M61.235,16.722,53.621,3.669A7.356,7.356,0,0,0,46.971,0a6.729,6.729,0,0,0-5.995,3.989L33.642,19.353H1.25A1.25,1.25,0,0,0,.011,20.769l2.173,16.2c0,.034,0,.069,0,.1L8.011,80.418a1.248,1.248,0,0,0,.1.308c.017.039.02.085.041.123a1.248,1.248,0,0,0,1.1.652h32.4a1.248,1.248,0,0,0,1.1-.652c.02-.038.024-.084.04-.123a1.21,1.21,0,0,0,.1-.308l5.847-43.5c0-.03,0-.06,0-.09l2.153-16.055a1.25,1.25,0,0,0-1.239-1.416H44.311L47.538,12.6a.168.168,0,0,1,.136-.1.16.16,0,0,1,.112.02l5.307,8.6a1.251,1.251,0,0,0,1.641.453l6-3.114a1.251,1.251,0,0,0,.5-1.74M32.448,21.853,26.421,34.474a19.365,19.365,0,0,0-22.034.115L2.678,21.853ZM28.506,35.909l6.712-14.056h5.128L32.725,37.805a16.772,16.772,0,0,1-4.219-1.9M10.343,79,4.765,37.413a16.944,16.944,0,0,1,20.787-.5l.019.016c.2.153.407.288.609.433l0,.005.022.014a19.417,19.417,0,0,0,19.708,1.7L40.56,79ZM48.225,21.853,46.328,36a16.889,16.889,0,0,1-8.833,2.5,17.181,17.181,0,0,1-2.254-.159l7.875-16.486Zm6.387-3.031-4.779-7.748a1.23,1.23,0,0,0-.125-.169,2.678,2.678,0,0,0-4.427.616L41.54,19.353H36.412L43.232,5.07A4.248,4.248,0,0,1,47.054,2.5a4.88,4.88,0,0,1,4.391,2.4l.011.02,6.958,11.929Z"/>
      </g>
    </g>
  </g>
</svg>
