<svg xmlns="http://www.w3.org/2000/svg" xmlns:xlink="http://www.w3.org/1999/xlink" width="265" height="265" viewBox="0 0 265 265">
  <defs>
    <style>
      .cls-1 {
        fill: none;
      }

      .cls-2 {
        fill: #fff;
      }

      .cls-3 {
        fill: #191212;
        font-size: 20px;
        font-family: AppleSDGothicNeoM00;
        letter-spacing: -0.018em;
      }

      .cls-4 {
        clip-path: url(#clip-path);
      }

      .cls-5 {
        fill: #f6323e;
      }
    </style>
    <clipPath id="clip-path">
      <rect id="사각형_3073" data-name="사각형 3073" class="cls-1" width="63.575" height="81.668" transform="translate(0 0)"/>
    </clipPath>
  </defs>
  <g id="그룹_106" data-name="그룹 106" transform="translate(-1255 -1590)">
    <rect id="사각형_3050" data-name="사각형 3050" class="cls-2" width="265" height="265" transform="translate(1255 1590)"/>
    <text id="회식비_지원" data-name="회식비 지원" class="cls-3" transform="translate(1388 1782)"><tspan x="-44.98" y="0">회식비 지원</tspan></text>
    <g id="그룹_97" data-name="그룹 97" transform="translate(1356 1658)">
      <g id="그룹_96" data-name="그룹 96" class="cls-4">
        <path id="패스_208" data-name="패스 208" class="cls-5" d="M4.609,78.368a1.965,1.965,0,0,0,1.965,1.965H42.248a1.965,1.965,0,0,0,1.965-1.965V26.77H4.609Z"/>
        <path id="패스_209" data-name="패스 209" d="M12.456,31.732c-2.542,0-3.28,3.536-3.614,6.195a51.682,51.682,0,0,0-.336,6.3V62.9c0,3.755.384,12.491,3.95,12.491s3.949-8.736,3.949-12.491V44.217a51.435,51.435,0,0,0-.337-6.29c-.334-2.659-1.071-6.195-3.612-6.195M13.737,62.9c0,3.486-.553,8.084-1.281,9.527-.73-1.442-1.282-6.04-1.282-9.527V44.217c0-5.893.733-8.923,1.282-9.7.548.775,1.281,3.805,1.281,9.7Z"/>
        <path id="패스_210" data-name="패스 210" d="M24.411,31.732c-2.542,0-3.28,3.536-3.614,6.195a51.682,51.682,0,0,0-.336,6.3V62.9c0,3.755.384,12.491,3.95,12.491S28.36,66.654,28.36,62.9V44.217a51.435,51.435,0,0,0-.337-6.29c-.334-2.659-1.071-6.195-3.612-6.195M25.692,62.9c0,3.486-.553,8.084-1.281,9.527-.73-1.442-1.282-6.04-1.282-9.527V44.217c0-5.893.733-8.923,1.282-9.7.548.775,1.281,3.805,1.281,9.7Z"/>
        <path id="패스_211" data-name="패스 211" d="M36.366,31.732c-2.542,0-3.28,3.536-3.614,6.195a51.682,51.682,0,0,0-.336,6.3V62.9c0,3.755.384,12.491,3.95,12.491s3.949-8.736,3.949-12.491V44.217a51.435,51.435,0,0,0-.337-6.29c-.334-2.659-1.071-6.195-3.612-6.195M37.647,62.9c0,3.486-.553,8.084-1.281,9.527-.73-1.442-1.282-6.04-1.282-9.527V44.217c0-5.893.733-8.923,1.282-9.7.548.775,1.281,3.805,1.281,9.7Z"/>
        <path id="패스_212" data-name="패스 212" d="M54.763,22.771a9.281,9.281,0,0,0-8.544.915l-.672.443V19.387A8.63,8.63,0,0,0,38.571,4.811C37.376,1.631,33.6-.426,29.473.076A9.479,9.479,0,0,0,23.348,3.29,11.365,11.365,0,0,0,13.941.324C8.454.992,4.351,5.033,4.356,9.56A6.22,6.22,0,0,0,3.274,20.972v57.4a3.3,3.3,0,0,0,3.3,3.3H42.248a3.3,3.3,0,0,0,3.3-3.3v-8.9l.672.442A9.43,9.43,0,0,0,51.4,71.469a9.023,9.023,0,0,0,3.367-.647A13.975,13.975,0,0,0,63.575,57.79V35.8a13.975,13.975,0,0,0-8.812-13.032M45.547,40.347l4.7-1.883a1.286,1.286,0,0,0,.369-.223A1.266,1.266,0,0,1,52.7,39.2V54.389a1.266,1.266,0,0,1-2.087.963,1.308,1.308,0,0,0-.369-.223l-4.7-1.883ZM2.668,15.5a3.553,3.553,0,0,1,3.253-3.542A1.335,1.335,0,0,0,7.112,10.4l-.053-.269c-.415-3.411,2.818-6.621,7.2-7.155,3.421-.416,6.655.917,8.057,3.319a1.313,1.313,0,0,0,1.241.659A1.335,1.335,0,0,0,24.7,6.134,6.238,6.238,0,0,1,29.8,2.725c3.237-.4,6.136,1.3,6.465,3.778A1.335,1.335,0,0,0,37.9,7.623a5.962,5.962,0,1,1,.58,11.694,5.9,5.9,0,0,1-2.292-.834,1.335,1.335,0,0,0-1.4,2.27,8.586,8.586,0,0,0,4.533,1.293,8.731,8.731,0,0,0,1.047-.064,8.6,8.6,0,0,0,2.513-.716v4.17H5.942v-3.7a5.763,5.763,0,0,0,1.67-.157,22.16,22.16,0,0,0,7.781,2.008,14.509,14.509,0,0,0,1.465.071,24.653,24.653,0,0,0,7.533-1.365,1.334,1.334,0,1,0-.826-2.537,19.792,19.792,0,0,1-7.907,1.176A18.716,18.716,0,0,1,8.448,19a1.332,1.332,0,0,0-1.09-.117,3.2,3.2,0,0,1-2.3-.026A3.581,3.581,0,0,1,2.668,15.5M42.879,78.369a.632.632,0,0,1-.631.63H6.573a.631.631,0,0,1-.631-.63V28.1H42.879V78.369ZM60.907,57.79a11.322,11.322,0,0,1-7.138,10.556,6.618,6.618,0,0,1-6.084-.669L45.547,66.27V56.122l3.525,1.411a3.934,3.934,0,0,0,6.3-3.144V39.2a3.934,3.934,0,0,0-6.3-3.144l-3.525,1.412V27.323l2.138-1.407a6.609,6.609,0,0,1,6.084-.668A11.322,11.322,0,0,1,60.907,35.8Z"/>
      </g>
    </g>
  </g>
</svg>
